<svg version="1.2" xmlns="http://www.w3.org/2000/svg" viewBox="0 0 741 166" width="200" height="45"><style>.a{fill:#e63225}.b{fill:#fefefe}</style><path class="a" d="m130.8 109.1c-5.7 23.8-23.4 41.3-50.7 41.3-27.4 0-45.2-18.1-50.7-41.3h-23.2c6.5 34.1 34.6 56.3 72.6 56.3 36.4 0 67.2-19.5 74.7-56.3z"/><path class="a" d="m130.8 109.1c-5.7 23.8-23.4 41.3-50.7 41.3-27.4 0-45.2-18.1-50.7-41.3h-23.2c6.5 34.1 34.6 56.3 72.6 56.3 36.4 0 67.2-19.5 74.7-56.3z"/><path class="a" d="m28.7 96.3c-2.4-6.8-3.7-14.1-3.7-21.7 0-31.1 18.7-59.1 56.1-59.1 37.7 0 55.8 29.5 55.8 57.7 0 8.1-1.3 16-3.8 23.1h24.4c2.1-7.3 3.3-15.2 3.3-24 0-42-30.9-71.7-78.6-71.7-46.8 0-81.3 29.4-81.3 74.5 0 7.5 1 14.6 2.9 21.2z"/><path class="a" d="m28.7 96.3c-2.4-6.8-3.7-14.1-3.7-21.7 0-31.1 18.7-59.1 56.1-59.1 37.7 0 55.8 29.5 55.8 57.7 0 8.1-1.3 16-3.8 23.1h24.4c2.1-7.3 3.3-15.2 3.3-24 0-42-30.9-71.7-78.6-71.7-46.8 0-81.3 29.4-81.3 74.5 0 7.5 1 14.6 2.9 21.2z"/><path class="a" d="m88.2 131.7q-3.5 0.4-7.3 0.4-3.8 0-7.3-0.4h-45.2c13.4 9.8 31 15.3 51.2 15.3 20 0 38.4-5.2 52.6-15.3z"/><path class="b" d="m119.6 124.4c-8.8 10.6-21.9 17.4-39.3 17.4-17.3 0-30.2-7-38.9-17.4h-25.7c12.2 20 34.6 32.4 63.6 32.4 28.1 0 51.5-12 64.8-32.4z"/><path class="b" d="m29.8 66.7c5.7-23.8 23.4-41.4 50.8-41.4 27.4 0 45.1 18.2 50.6 41.4h23.2c-6.5-34.2-34.6-56.3-72.6-56.3-36.4 0-67.1 19.4-74.7 56.3z"/><path class="b" d="m69.2 71c0 7.4-6 13.4-13.4 13.4-7.4 0-13.4-6-13.4-13.4 0-7.3 6-13.3 13.4-13.3 7.4 0 13.4 6 13.4 13.3z"/><path class="b" d="m122.1 71c0 7.4-6 13.4-13.4 13.4-7.4 0-13.3-6-13.3-13.4 0-7.3 5.9-13.3 13.3-13.3 7.4 0 13.4 6 13.4 13.3z"/><path class="b" d="m241 47.7c20.4 0 29.2 11.7 29.2 25.1 0 12.7-8 26.4-29.2 26.4h-28.3c-1.4 0-2.2 0.6-2.2 2.1v30.4h-15.9v-33.3c0-9.4 4.3-13.3 14.2-13.3h32.7c9 0 12.7-5.7 12.7-11.5 0-6.1-3.9-11.2-12.5-11.2h-47.2v-14.7z"/><path class="b" d="m350.6 47.7v14.7h-26.5v69.3h-16v-69.3h-26.5v-14.7z"/><path class="b" d="m384.1 47.7v84h-15.9v-84z"/><path class="b" d="m424.4 131.7h-15.9v-67.2c0-11 6.6-18.3 20.2-18.3 12.1 0 17.9 6 21.3 15.5l22 53.7c1 2.1 2.7 3.4 5.1 3.4 2.7 0 4.7-1.8 4.7-4.7v-49.6c0-11 6.6-18.3 20.1-18.3 12.1 0 17.9 6 21.5 15.5l28.1 70h-17.1l-27-67.7c-1-2.1-2.7-3.6-5.1-3.6-2.7 0-4.6 1.8-4.6 4.8v49.5c0 11.1-6.9 18.4-20.2 18.4-11.9 0-17.9-5.9-21.4-15.5l-22-53.6c-0.9-2.1-2.7-3.6-5-3.6-2.8 0-4.7 1.8-4.7 4.8z"/><path class="b" d="m578 47.7v56.1c0 8.3 4.6 13.2 15 13.2h16.2c10.2 0 14.9-4.9 14.9-13.2v-56.1h15.6v57.2c0 17.7-10.1 26.8-29.4 26.8h-19.1c-19.4 0-29.3-9.1-29.3-26.8v-57.2z"/><path class="b" d="m724.4 48.4l-0.5 14h-36.7c-8.2 0-11.9 4.1-11.9 9.9 0 5.1 2.9 10 13.5 10h21.2c24.8 0 30.6 12.7 30.6 24.7 0 14.2-8.2 24.7-28.9 24.7h-50.6v-14.7h51.1c8.6 0 12.5-4.4 12.5-10.5 0-5.4-3.1-10.4-14.3-10.4h-21.1c-24.2 0-29.8-12.6-29.8-24.3 0-13.9 8.1-24.1 28.2-24.1z"/><path class="a" d="m713.3 40.8v29.1l21.2-14.5z"/></svg>